<svg xmlns="http://www.w3.org/2000/svg" width="18.626" height="18.6" viewBox="0 0 18.626 18.6"><g transform="translate(-6.44 -6.4)"><g transform="translate(6.44 6.4)"><path d="M22.887,11.27a.64.64,0,0,0-.641-.545H18.561V9.22a2.82,2.82,0,1,0-5.639,0v1.506H9.237a.64.64,0,0,0-.641.545L6.45,24.247a.63.63,0,0,0,.144.529.657.657,0,0,0,.5.224H24.409a.65.65,0,0,0,.657-.657.812.812,0,0,0-.032-.208L22.887,11.27ZM14.236,9.22a1.506,1.506,0,1,1,3.012,0v1.506H14.236V9.22ZM7.859,23.7,9.8,12.039h3.124v3.669a.657.657,0,0,0,1.314,0V12.039h3.012v3.669a.657.657,0,0,0,1.314,0V12.039h3.124L23.624,23.7H7.859Z" transform="translate(-6.44 -6.4)"/></g></g></svg>