<svg xmlns="http://www.w3.org/2000/svg" width="28.501" height="28.501" viewBox="0 0 28.501 28.501"><g transform="translate(-6.4 -6.4)"><path d="M6.694,34.607a1.007,1.007,0,0,0,1.423,0L20.651,22.073,33.184,34.607a.982.982,0,0,0,.711.294,1.024,1.024,0,0,0,.711-.294,1.007,1.007,0,0,0,0-1.423L22.073,20.651,34.607,8.117a1.006,1.006,0,1,0-1.423-1.423L20.651,19.228,8.117,6.694A1.006,1.006,0,0,0,6.694,8.117L19.228,20.651,6.694,33.184A1.007,1.007,0,0,0,6.694,34.607Z" transform="translate(0 0)" fill="#fff"/></g></svg>