<svg xmlns="http://www.w3.org/2000/svg" width="36" height="36" viewBox="0 0 36 36"><g transform="translate(-6.2 -6.2)" opacity="0.5"><circle cx="18" cy="18" r="18" transform="translate(6.2 6.2)" opacity="0.5"/><g transform="translate(6.4 6.4)"><path d="M41.872,54.779a1.272,1.272,0,0,0,1.8,0l4.957-4.957,4.957,4.957a1.272,1.272,0,0,0,1.8,0,1.272,1.272,0,0,0,0-1.8l-4.957-4.957,4.957-4.957a1.271,1.271,0,1,0-1.8-1.8l-4.957,4.957-4.957-4.957a1.271,1.271,0,1,0-1.8,1.8l4.957,4.957-4.957,4.957A1.271,1.271,0,0,0,41.872,54.779Z" transform="translate(-30.626 -30.212)" fill="#fff"/></g></g></svg>