<svg xmlns="http://www.w3.org/2000/svg" width="31.453" height="7.759" viewBox="0 0 31.453 7.759"><g transform="translate(-986.273 -122.121)"><g transform="translate(0 26)"><path d="M30.642,3.865,16,1.019,1.357,3.865A.949.949,0,0,1,.294,3.053.949.949,0,0,1,.976,1.9L10.76,0,.976-1.9A.949.949,0,0,1,.294-3.053a.949.949,0,0,1,1.063-.812L16-1.019,30.642-3.865a.949.949,0,0,1,1.064.812A.949.949,0,0,1,31.024-1.9L21.24,0l9.784,1.9a.949.949,0,0,1,.682,1.151.973.973,0,0,1-.911.827A.8.8,0,0,1,30.642,3.865Z" transform="translate(986 100)"/></g></g></svg>