<svg xmlns="http://www.w3.org/2000/svg" width="85.626" height="74.936" viewBox="0 0 85.626 74.936"><g transform="translate(0 -31.959)"><path d="M269.117,103.76c-.359-4.521-3.094-7.8-6.5-7.8H257.5c-3.3,0-5.955,3.028-6.46,7.362l-1.881,16.145a2.509,2.509,0,0,0,2.492,2.8H267.87a2.509,2.509,0,0,0,2.5-2.707ZM254.47,117.246l1.555-13.346c.238-2.046,1.2-2.926,1.476-2.926h5.113c.291,0,1.328.992,1.5,3.182l1.039,13.089Z" transform="translate(-207.477 -53.295)"/><path d="M58.343,159.957h-6.69a2.509,2.509,0,0,0,0,5.017h6.69a2.509,2.509,0,0,0,0-5.017Z" transform="translate(-40.926 -106.592)"/><path d="M31.695,287.957H19.654a2.509,2.509,0,1,0,0,5.017H31.695a2.509,2.509,0,1,0,0-5.017Z" transform="translate(-14.278 -213.185)"/><path d="M45.019,223.957H35.654a2.509,2.509,0,0,0,0,5.017h9.365a2.509,2.509,0,0,0,0-5.017Z" transform="translate(-27.602 -159.889)"/><path d="M17.417,351.957H2.509a2.509,2.509,0,0,0,0,5.017H17.417a2.509,2.509,0,0,0,0-5.017Z" transform="translate(0 -266.482)"/><path d="M210.234,64.019l-4.892-.074a.784.784,0,0,1-.761-.654L200.3,37.771a6.941,6.941,0,0,0-6.866-5.812H171.561A6.935,6.935,0,0,0,164.69,37.8l-8.129,49.943a5.824,5.824,0,0,0,5.747,6.761h10.864a14.632,14.632,0,0,0,28.919,0h8.054a5.8,5.8,0,0,0,5.795-5.795v-18.9a5.821,5.821,0,0,0-5.706-5.793Zm-22.6,37.859a9.614,9.614,0,1,1,9.614-9.614A9.625,9.625,0,0,1,187.631,101.878Zm23.291-13.167a.779.779,0,0,1-.778.778H202a14.631,14.631,0,0,0-28.731,0c-11.866,0-11.227.122-11.572-.284s-.747,2.823,7.949-50.6a1.938,1.938,0,0,1,1.919-1.633h21.878a1.939,1.939,0,0,1,1.918,1.624l4.276,25.521a5.8,5.8,0,0,0,5.632,4.842l4.892.074a.78.78,0,0,1,.765.776Z" transform="translate(-130.313)"/></g></svg>