<svg xmlns="http://www.w3.org/2000/svg" width="20.745" height="18.6" viewBox="0 0 20.745 18.6"><g transform="translate(-6.56 -12.6)"><path d="M27.154,17.523c-.591-2.972-2.7-4.887-5.424-4.887a8.269,8.269,0,0,0-4.78,1.808A8.186,8.186,0,0,0,12.135,12.6c-2.721,0-4.851,1.933-5.424,4.941C5.851,22,8.608,27.924,16.682,31.146a.7.7,0,0,0,.537,0C25.275,27.852,28.013,21.945,27.154,17.523ZM16.95,29.678c-7.089-2.936-9.542-8.056-8.808-11.869.43-2.274,2.005-3.759,3.992-3.759a7.129,7.129,0,0,1,4.35,1.88.727.727,0,0,0,.913,0A7.2,7.2,0,0,1,21.73,14.1c1.987,0,3.545,1.45,3.992,3.706.734,3.777-1.7,8.879-8.772,11.869Z" transform="translate(0 0)"/></g></svg>