<svg xmlns="http://www.w3.org/2000/svg" width="27.995" height="28" viewBox="0 0 27.995 28"><g transform="translate(-0.449 0)"><path d="M28.372,8.232a10.231,10.231,0,0,0-.651-3.4,7.173,7.173,0,0,0-4.1-4.1,10.258,10.258,0,0,0-3.4-.651C18.729.016,18.253,0,14.451,0S10.174.016,8.681.082a10.234,10.234,0,0,0-3.4.651A6.832,6.832,0,0,0,2.8,2.352,6.894,6.894,0,0,0,1.187,4.83a10.259,10.259,0,0,0-.651,3.4C.465,9.725.449,10.2.449,14s.016,4.277.082,5.771a10.231,10.231,0,0,0,.651,3.4,7.171,7.171,0,0,0,4.1,4.1,10.259,10.259,0,0,0,3.4.651c1.493.066,1.969.082,5.771.082s4.277-.016,5.771-.082a10.229,10.229,0,0,0,3.4-.651,7.162,7.162,0,0,0,4.1-4.1,10.266,10.266,0,0,0,.651-3.4c.066-1.493.082-1.969.082-5.771s-.006-4.277-.071-5.771ZM25.851,19.664a7.675,7.675,0,0,1-.481,2.6,4.645,4.645,0,0,1-2.658,2.658,7.7,7.7,0,0,1-2.6.481c-1.477.066-1.92.082-5.656.082S10.272,25.468,8.8,25.4a7.671,7.671,0,0,1-2.6-.481,4.309,4.309,0,0,1-1.608-1.045A4.353,4.353,0,0,1,3.55,22.268a7.7,7.7,0,0,1-.481-2.6c-.066-1.477-.082-1.92-.082-5.656S3,9.829,3.069,8.358a7.671,7.671,0,0,1,.481-2.6A4.256,4.256,0,0,1,4.6,4.152,4.347,4.347,0,0,1,6.208,3.107a7.707,7.707,0,0,1,2.6-.481c1.477-.066,1.92-.082,5.656-.082s4.184.016,5.656.082a7.675,7.675,0,0,1,2.6.481,4.305,4.305,0,0,1,1.608,1.045A4.352,4.352,0,0,1,25.369,5.76a7.706,7.706,0,0,1,.481,2.6c.066,1.477.082,1.92.082,5.656s-.016,4.174-.082,5.65Zm0,0" transform="translate(0 0)" fill="#fff"/><path d="M132.142,124.5a7.193,7.193,0,1,0,7.193,7.193A7.195,7.195,0,0,0,132.142,124.5Zm0,11.859a4.666,4.666,0,1,1,4.666-4.666A4.667,4.667,0,0,1,132.142,136.359Zm0,0" transform="translate(-117.69 -117.69)" fill="#fff"/><path d="M365.808,90.281a1.679,1.679,0,1,1-1.679-1.679A1.679,1.679,0,0,1,365.808,90.281Zm0,0" transform="translate(-342.2 -83.755)" fill="#fff"/></g></svg>