<svg xmlns="http://www.w3.org/2000/svg" width="50.1" height="39.1" viewBox="0 0 50.1 39.1"><g transform="translate(-33.5 -33.5)"><g transform="translate(33.5 33.5)"><path d="M80.212,33.5h-43.4a3.613,3.613,0,0,0,0,7.2H80.292A3.425,3.425,0,0,0,83.6,37.1,3.542,3.542,0,0,0,80.212,33.5Z" transform="translate(-33.5 -33.5)" fill="#fff"/><path d="M80.212,87.4h-43.4a3.613,3.613,0,0,0,0,7.2H80.292A3.425,3.425,0,0,0,83.6,91,3.542,3.542,0,0,0,80.212,87.4Z" transform="translate(-33.5 -55.5)" fill="#fff"/><path d="M80.212,60.4h-43.4a3.613,3.613,0,0,0,0,7.2H80.292A3.425,3.425,0,0,0,83.6,64,3.542,3.542,0,0,0,80.212,60.4Z" transform="translate(-33.5 -44.5)" fill="#fff"/></g></g></svg>