<svg xmlns="http://www.w3.org/2000/svg" width="116.115" height="116.015" viewBox="0 0 116.115 116.015"><g transform="translate(-6.485 -6.485)"><path d="M121.3,66.4,62.6,7.7a4.35,4.35,0,0,0-3.4-1.2l-44,5a4.151,4.151,0,0,0-3.7,3.7l-5,44a4.228,4.228,0,0,0,1.2,3.4l58.7,58.7a4.234,4.234,0,0,0,3,1.2,4.41,4.41,0,0,0,3-1.2l49-49a4.07,4.07,0,0,0,1.2-3,4.8,4.8,0,0,0-1.3-2.9ZM15.1,58.1l4.4-38.6,38.6-4.4L98,55,55,98,15.1,58.1Zm54.3,54.3L61,104l43-43,8.4,8.4Z" fill="#fff"/><path d="M54.7,32.2a15.885,15.885,0,0,0-11.3-4.7A15.95,15.95,0,0,0,32.1,54.7a15.885,15.885,0,0,0,11.3,4.7,16.059,16.059,0,0,0,11.3-4.7,15.814,15.814,0,0,0,0-22.5ZM48.8,48.8a7.865,7.865,0,0,1-10.7,0,7.667,7.667,0,0,1,0-10.7,7.5,7.5,0,0,1,12.8,5.3A7.23,7.23,0,0,1,48.8,48.8Z" fill="#fff"/></g></svg>