<svg xmlns="http://www.w3.org/2000/svg" width="34.699" height="28.2" viewBox="0 0 34.699 28.2"><path d="M10.994,24.376c13.095,0,20.256-10.849,20.256-20.256q0-.462-.02-.92A14.488,14.488,0,0,0,34.781-.486,14.2,14.2,0,0,1,30.693.635,7.146,7.146,0,0,0,33.823-3.3,14.278,14.278,0,0,1,29.3-1.575,7.125,7.125,0,0,0,17.171,4.917,20.213,20.213,0,0,1,2.5-2.521a7.1,7.1,0,0,0-.964,3.578A7.113,7.113,0,0,0,4.7,6.983a7.064,7.064,0,0,1-3.224-.89c0,.03,0,.059,0,.091a7.121,7.121,0,0,0,5.712,6.979,7.145,7.145,0,0,1-1.877.25,7.075,7.075,0,0,1-1.338-.128,7.127,7.127,0,0,0,6.651,4.945A14.283,14.283,0,0,1,1.78,21.277a14.489,14.489,0,0,1-1.7-.1,20.152,20.152,0,0,0,10.913,3.2" transform="translate(-0.082 3.824)" fill="#fff"/></svg>