<svg xmlns="http://www.w3.org/2000/svg" width="11.091" height="15.769" viewBox="0 0 11.091 15.769"><g transform="translate(-18 -6.4)"><g transform="translate(18 6.4)"><path d="M23.469,7.513a4.367,4.367,0,0,1,4.37,4.37.556.556,0,0,0,1.113,0,5.476,5.476,0,1,0-10.951,0v9.73a.55.55,0,0,0,.556.556h9.974a.55.55,0,0,0,.556-.556V15.4a.55.55,0,0,0-.556-.556H19.1V11.882A4.384,4.384,0,0,1,23.469,7.513Zm4.505,8.441v5.1H19.1v-5.1Z" transform="translate(-18 -6.4)"/><circle cx="0.896" cy="0.896" r="0.896" transform="translate(4.655 11.209)"/><path d="M10.4,5.4l.141,3.766" fill="none" stroke="#000" stroke-width="1.1"/></g></g></svg>